<?xml version="1.0" encoding="UTF-8"?>
<svg width="70px" height="56px" viewBox="0 0 70 56" version="1.1" xmlns="http://www.w3.org/2000/svg" xmlns:xlink="http://www.w3.org/1999/xlink">
    <title>Comma1</title>
    <g id="Page-1" stroke="none" stroke-width="1" fill="none" fill-rule="evenodd">
        <g id="Home---RL1" transform="translate(-1044.000000, -5606.000000)" fill="#2444EB" fill-rule="nonzero">
            <path d="M1059.49479,5661.73667 C1063.56597,5661.73667 1066.98394,5660.46861 1069.7487,5657.9325 C1072.51345,5655.39639 1073.89583,5652.17278 1073.89583,5648.26167 C1073.89583,5644.28944 1072.51345,5640.97417 1069.7487,5638.31583 C1066.98394,5635.6575 1063.86979,5634.32833 1060.40625,5634.32833 L1060.40625,5634.32833 L1059.13021,5634.32833 C1059.37326,5630.72278 1060.43663,5627.72833 1062.32031,5625.345 C1064.20399,5622.96167 1066.75608,5620.88389 1069.97656,5619.11167 C1072.34635,5617.82833 1073.53125,5615.84222 1073.53125,5613.15333 C1073.53125,5611.32 1072.98438,5609.82278 1071.89062,5608.66167 C1070.79688,5607.50056 1069.27778,5606.92 1067.33333,5606.92 C1064.41667,5606.92 1061.08984,5608.46306 1057.35286,5611.54917 C1053.61589,5614.63528 1050.45616,5618.82139 1047.8737,5624.1075 C1045.29123,5629.39361 1044,5635.06167 1044,5641.11167 C1044,5647.71167 1045.47352,5652.79917 1048.42057,5656.37417 C1051.36762,5659.94917 1055.05903,5661.73667 1059.49479,5661.73667 Z M1099.59896,5661.92 C1103.67014,5661.92 1107.08811,5660.60611 1109.85286,5657.97833 C1112.61762,5655.35056 1114,5652.11167 1114,5648.26167 C1114,5644.28944 1112.61762,5640.97417 1109.85286,5638.31583 C1107.08811,5635.6575 1104.00434,5634.32833 1100.60156,5634.32833 L1100.60156,5634.32833 L1099.41667,5634.32833 C1099.78125,5630.66167 1100.81424,5627.6825 1102.51562,5625.39083 C1104.21701,5623.09917 1106.73872,5621.00611 1110.08073,5619.11167 C1112.45052,5617.88944 1113.63542,5615.90333 1113.63542,5613.15333 C1113.63542,5611.25889 1113.10373,5609.74639 1112.04036,5608.61583 C1110.977,5607.48528 1109.44271,5606.92 1107.4375,5606.92 C1105.25,5606.92 1102.77387,5607.82139 1100.00911,5609.62417 C1097.24436,5611.42694 1094.66189,5613.87139 1092.26172,5616.9575 C1089.86155,5620.04361 1087.90191,5623.66444 1086.38281,5627.82 C1084.86372,5631.97556 1084.10417,5636.40611 1084.10417,5641.11167 C1084.10417,5647.65056 1085.5625,5652.75333 1088.47917,5656.42 C1091.39583,5660.08667 1095.10243,5661.92 1099.59896,5661.92 Z" id="Comma1"></path>
        </g>
    </g>
</svg>