<?xml version="1.0" encoding="UTF-8"?>
<svg width="70px" height="56px" viewBox="0 0 70 56" version="1.1" xmlns="http://www.w3.org/2000/svg" xmlns:xlink="http://www.w3.org/1999/xlink">
    <title>Comma2</title>
    <g id="Page-1" stroke="none" stroke-width="1" fill="none" fill-rule="evenodd">
        <g id="Home---RL1" transform="translate(-1448.000000, -5974.000000)" fill="#2444EB" fill-rule="nonzero">
            <path d="M1463.49479,6029.73667 C1467.56597,6029.73667 1470.98394,6028.46861 1473.7487,6025.9325 C1476.51345,6023.39639 1477.89583,6020.17278 1477.89583,6016.26167 C1477.89583,6012.28944 1476.51345,6008.97417 1473.7487,6006.31583 C1470.98394,6003.6575 1467.86979,6002.32833 1464.40625,6002.32833 L1464.40625,6002.32833 L1463.13021,6002.32833 C1463.37326,5998.72278 1464.43663,5995.72833 1466.32031,5993.345 C1468.20399,5990.96167 1470.75608,5988.88389 1473.97656,5987.11167 C1476.34635,5985.82833 1477.53125,5983.84222 1477.53125,5981.15333 C1477.53125,5979.32 1476.98438,5977.82278 1475.89062,5976.66167 C1474.79688,5975.50056 1473.27778,5974.92 1471.33333,5974.92 C1468.41667,5974.92 1465.08984,5976.46306 1461.35286,5979.54917 C1457.61589,5982.63528 1454.45616,5986.82139 1451.8737,5992.1075 C1449.29123,5997.39361 1448,6003.06167 1448,6009.11167 C1448,6015.71167 1449.47352,6020.79917 1452.42057,6024.37417 C1455.36762,6027.94917 1459.05903,6029.73667 1463.49479,6029.73667 Z M1503.59896,6029.92 C1507.67014,6029.92 1511.08811,6028.60611 1513.85286,6025.97833 C1516.61762,6023.35056 1518,6020.11167 1518,6016.26167 C1518,6012.28944 1516.61762,6008.97417 1513.85286,6006.31583 C1511.08811,6003.6575 1508.00434,6002.32833 1504.60156,6002.32833 L1504.60156,6002.32833 L1503.41667,6002.32833 C1503.78125,5998.66167 1504.81424,5995.6825 1506.51562,5993.39083 C1508.21701,5991.09917 1510.73872,5989.00611 1514.08073,5987.11167 C1516.45052,5985.88944 1517.63542,5983.90333 1517.63542,5981.15333 C1517.63542,5979.25889 1517.10373,5977.74639 1516.04036,5976.61583 C1514.977,5975.48528 1513.44271,5974.92 1511.4375,5974.92 C1509.25,5974.92 1506.77387,5975.82139 1504.00911,5977.62417 C1501.24436,5979.42694 1498.66189,5981.87139 1496.26172,5984.9575 C1493.86155,5988.04361 1491.90191,5991.66444 1490.38281,5995.82 C1488.86372,5999.97556 1488.10417,6004.40611 1488.10417,6009.11167 C1488.10417,6015.65056 1489.5625,6020.75333 1492.47917,6024.42 C1495.39583,6028.08667 1499.10243,6029.92 1503.59896,6029.92 Z" id="Comma2" transform="translate(1483.000000, 6002.420000) scale(-1, -1) translate(-1483.000000, -6002.420000) "></path>
        </g>
    </g>
</svg>