<?xml version="1.0" encoding="UTF-8"?>
<svg width="105px" height="63px" viewBox="0 0 105 63" version="1.1" xmlns="http://www.w3.org/2000/svg" xmlns:xlink="http://www.w3.org/1999/xlink">
    <title>Drag</title>
    <g id="Page-1" stroke="none" stroke-width="1" fill="none" fill-rule="evenodd">
        <g id="Home---RL1" transform="translate(-1440.000000, -1071.000000)" fill="#1C1C1C" fill-rule="nonzero">
            <g id="Drag" transform="translate(1440.000000, 1071.000000)">
                <path d="M55.6533113,0.656696368 L55.5368994,1.71134368 C54.4476572,1.59111314 53.3476086,1.53052632 52.24,1.53052632 L52.24,0.469473684 C53.3865196,0.469473684 54.5254307,0.532200921 55.6533113,0.656696368 Z M62.3241636,2.16007639 L61.9765701,3.16257899 C60.9380849,2.80250938 59.878735,2.50027262 58.8024706,2.25763232 L59.0358247,1.22255815 C60.1508072,1.47392732 61.2482944,1.78704481 62.3241636,2.16007639 Z M68.4947599,5.10840723 L67.9334848,6.00885323 C66.9993421,5.42657403 66.0334356,4.89655005 65.0400291,4.42154373 L65.4977468,3.46429391 C66.5267514,3.95632177 67.5272273,4.50531508 68.4947599,5.10840723 Z M73.8979191,9.38227932 L73.1510731,10.1359727 C72.3688813,9.36088734 71.5443666,8.62950428 70.6815573,7.94550492 L71.3407137,7.11403301 C72.2341747,7.8223318 73.0879629,8.57968179 73.8979191,9.38227932 Z M78.1654761,14.6591388 L77.2721326,15.231651 C76.6779062,14.3044249 76.0325108,13.4107335 75.3392504,12.554786 L76.163783,11.8869696 C76.8817011,12.7733612 77.5500718,13.698867 78.1654761,14.6591388 Z M81.2043711,20.8285883 L80.2058832,21.1875517 C79.8330691,20.1505365 79.4027398,19.1361786 78.9172019,18.1486651 L79.869385,17.6804984 C80.3723536,18.7034634 80.8181484,19.7542762 81.2043711,20.8285883 Z M82.7914603,27.5496897 L81.7379089,27.6756342 C81.6067436,26.5784102 81.4150652,25.4935842 81.1642263,24.4248156 L82.1972101,24.1823754 C82.4570551,25.2895174 82.6556053,26.4132346 82.7914603,27.5496897 Z M82.8645,34.2566004 L81.8084368,34.1538224 C81.9022638,33.1897334 81.9494737,32.2177146 81.9494737,31.238786 L81.9470231,30.8543734 L83.00799,30.840882 L83.0105263,31.2387648 C83.0105263,32.2520425 82.9616505,33.2583609 82.8645,34.2566004 Z M81.4489001,40.9441289 L80.4419157,40.6097413 C80.7881817,39.5669858 81.0764256,38.5039991 81.3049397,37.4246958 L82.3429813,37.6444738 C82.1062498,38.762589 81.8076309,39.8638366 81.4489001,40.9441289 Z M78.5822636,47.1518083 L77.6745541,46.6023575 C78.2445782,45.6606602 78.7619212,44.6878355 79.2238795,43.688144 L80.187066,44.1332333 C79.7085443,45.1687684 79.1726747,46.176431 78.5822636,47.1518083 Z M74.3780631,52.6113184 L73.6147619,51.8742948 C74.3797612,51.0820204 75.1004883,50.2479911 75.7733054,49.3762662 L76.6132679,50.0245684 C75.9165414,50.9272711 75.1702201,51.7909182 74.3780631,52.6113184 Z M69.1573934,56.9466985 L68.5732908,56.0608899 C69.4926444,55.4546678 70.3778387,54.7977415 71.2246821,54.0934672 L71.9031389,54.9092668 C71.026187,55.6385808 70.1094952,56.3188822 69.1573934,56.9466985 Z M63.0286696,60.0659351 L62.6566015,59.0722561 C63.6886081,58.6858369 64.6973265,58.242178 65.678552,57.7436462 L66.1591669,58.689607 C65.1427337,59.2060269 64.0977796,59.6656231 63.0286696,60.0659351 Z M56.3327381,61.7406631 L56.1929273,60.688862 C57.287973,60.5433029 58.3700603,60.3373162 59.4354896,60.0723042 L59.6916088,61.1019816 C58.5878999,61.3765152 57.466984,61.5898933 56.3327381,61.7406631 Z M49.6185304,61.900397 L49.7077518,60.8431023 C50.5468354,60.9139096 51.3914084,60.9494737 52.2428106,60.9494736 C52.4994584,60.9494498 52.7557185,60.946173 53.0115518,60.9396534 L53.0385825,62.0003617 C52.7737739,62.00711 52.5085356,62.0105016 52.2428597,62.0105262 C51.3616318,62.0105262 50.4872919,61.9737088 49.6185304,61.900397 Z M42.9163279,60.5724765 L43.2374935,59.5611975 C44.2849501,59.8938525 45.3520336,60.1682397 46.434859,60.3827035 L46.2287119,61.4235378 C45.1069676,61.2013657 44.0014864,60.9171051 42.9163279,60.5724765 Z M36.6708308,57.786644 L37.2084613,56.8718838 C38.1577673,57.4298178 39.1375863,57.9346275 40.1436588,58.3836654 L39.7112015,59.3525892 C38.6690369,58.8874424 37.6541089,58.3645444 36.6708308,57.786644 Z M31.1618143,53.6574232 L31.8887912,52.8845472 C32.6908802,53.6390023 33.5341206,54.348642 34.4144275,55.0098774 L33.777176,55.8582542 C32.8655757,55.173513 31.9923825,54.4386662 31.1618143,53.6574232 Z M26.7563021,48.4908384 L27.6344345,47.8952579 C28.2525648,48.8066381 28.9209309,49.6832341 29.6361249,50.5208727 L28.829191,51.2098504 C28.088578,50.342441 27.39644,49.434667 26.7563021,48.4908384 Z M23.557661,42.4046122 L24.5463534,42.0194887 C24.9462204,43.046031 25.4030089,44.0486641 25.9142939,45.0231712 L24.9747087,45.516134 C24.445088,44.5066791 23.9718986,43.4680466 23.557661,42.4046122 Z M21.7948385,35.7303912 L22.8447247,35.57686 C23.0045383,36.6697072 23.2246974,37.7490323 23.5037492,38.8110957 L22.4775279,39.0807301 C22.1884446,37.9804865 21.9603792,36.8624013 21.7948385,35.7303912 Z M21.5484849,29.0181268 L22.6068454,29.0936637 C22.5559922,29.8061755 22.5305263,30.5219294 22.530527,31.2462198 C22.5306058,31.6314786 22.5380151,32.0158566 22.5527192,32.3992213 L21.4924462,32.4398884 C21.4772253,32.0430477 21.469556,31.645184 21.4694743,31.2463289 C21.4694743,30.4967486 21.495836,29.7557994 21.5484849,29.0181268 Z M22.7893659,22.2969745 L23.8047514,22.6049112 C23.4857923,23.656642 23.2253076,24.7273918 23.0249006,25.8133091 L21.9814683,25.6207427 C22.1890741,24.495819 22.4589284,23.3865539 22.7893659,22.2969745 Z M25.494149,16.0148474 L26.4157853,16.5406032 C25.8701795,17.497036 25.3780964,18.4833491 24.9421246,19.4952903 L23.967661,19.0754648 C24.4192811,18.0272022 24.9290066,17.0055273 25.494149,16.0148474 Z M29.5501109,10.455263 L30.3323262,11.1721813 C29.5880459,11.9842508 28.8891577,12.8369111 28.2392063,13.7260474 L27.3826127,13.0998845 C28.0556775,12.1791289 28.7793984,11.2961722 29.5501109,10.455263 Z M34.6609589,5.98200915 L35.267831,6.85237628 C34.3645527,7.48219598 33.4966739,8.16177403 32.6683469,8.8876523 L31.9690432,8.08965044 C32.8268007,7.33798166 33.7255353,6.6342425 34.6609589,5.98200915 Z M40.702854,2.70559426 L41.1009103,3.68915101 C40.0795969,4.1024878 39.0828308,4.57246007 38.1148441,5.09658179 L37.6096349,4.16352423 C38.6123163,3.62061686 39.6448526,3.13377913 40.702854,2.70559426 Z M47.3504244,0.855896101 L47.5177457,1.90367293 C46.4272987,2.07780823 45.3509462,2.31219276 44.292467,2.60532199 L44.0092835,1.58275667 C45.1058316,1.27908485 46.2208638,1.03627754 47.3504244,0.855896101 Z M52.2342636,0.469474208 L52.2344573,1.53052682 C51.720406,1.53062063 51.2079341,1.54376513 50.697358,1.56987401 L50.6431707,0.510205938 C51.1717277,0.483177579 51.7022034,0.469571307 52.2342636,0.469474208 Z" id="Oval"></path>
                <path d="M7.83339872,23.7491882 C8.16143913,23.4211478 8.69329771,23.4211478 9.02133812,23.7491882 C9.32204182,24.0498919 9.34710046,24.5218595 9.09651404,24.8511072 L9.02133812,24.9371276 L2.187,31.77 L9.02133812,38.603925 C9.32204182,38.9046287 9.34710046,39.3765963 9.09651404,39.705844 L9.02133812,39.7918644 C8.72063441,40.0925681 8.24866682,40.1176268 7.91941914,39.8670404 L7.83339872,39.7918644 L0.406030304,32.364496 C0.105326599,32.0637923 0.0802679571,31.5918247 0.330854378,31.262577 L0.406030304,31.1765566 L7.83339872,23.7491882 Z" id="Path"></path>
                <path d="M102.974451,23.7491882 C103.302492,23.4211478 103.83435,23.4211478 104.162391,23.7491882 C104.463094,24.0498919 104.488153,24.5218595 104.237567,24.8511072 L104.162391,24.9371276 L97.329,31.77 L104.162391,38.603925 C104.463094,38.9046287 104.488153,39.3765963 104.237567,39.705844 L104.162391,39.7918644 C103.861687,40.0925681 103.389719,40.1176268 103.060472,39.8670404 L102.974451,39.7918644 L95.5470829,32.364496 C95.2463792,32.0637923 95.2213206,31.5918247 95.471907,31.262577 L95.5470829,31.1765566 L102.974451,23.7491882 Z" id="Path-Copy" transform="translate(99.854737, 31.770526) scale(-1, 1) translate(-99.854737, -31.770526) "></path>
                <path d="M38.54032,36.5424 C39.44528,36.5424 40.17104,36.41248 40.7176,36.15264 C41.26416,35.8928 41.66512,35.49632 41.92048,34.9632 C42.17584,34.43008 42.31248,33.73792 42.3304,32.88672 C42.33936,32.61792 42.34384,32.264 42.34384,31.82496 C42.34384,31.38592 42.33936,31.03648 42.3304,30.77664 C42.31248,29.55808 42.00336,28.6464 41.40304,28.0416 C40.80272,27.4368 39.82608,27.1344 38.47312,27.1344 L38.47312,27.1344 L35.43568,27.1344 C35.34608,27.1344 35.2744,27.16352 35.22064,27.22176 C35.16688,27.28 35.14,27.3584 35.14,27.45696 L35.14,27.45696 L35.14,36.23328 C35.14,36.32288 35.16688,36.3968 35.22064,36.45504 C35.2744,36.51328 35.34608,36.5424 35.43568,36.5424 L35.43568,36.5424 L38.54032,36.5424 Z M38.47312,35.42688 L36.40336,35.42688 L36.40336,28.23648 L38.40592,28.23648 C39.33776,28.23648 40.00752,28.4448 40.4152,28.86144 C40.82288,29.27808 41.03568,29.9344 41.0536,30.8304 C41.07152,31.35008 41.08048,31.6816 41.08048,31.82496 C41.08048,31.95936 41.07152,32.29536 41.0536,32.83296 C41.03568,33.46912 40.94384,33.97312 40.77808,34.34496 C40.61232,34.7168 40.34352,34.99008 39.97168,35.1648 C39.59984,35.33952 39.10032,35.42688 38.47312,35.42688 L38.47312,35.42688 Z M45.32752,36.5424 C45.41712,36.5424 45.49328,36.51328 45.556,36.45504 C45.61872,36.3968 45.65008,36.32288 45.65008,36.23328 L45.65008,36.23328 L45.65008,32.73888 L48.0424,32.73888 L50.01808,36.17952 C50.0808,36.296 50.15024,36.3856 50.2264,36.44832 C50.30256,36.51104 50.40784,36.5424 50.54224,36.5424 L50.54224,36.5424 L51.1336,36.5424 C51.20528,36.5424 51.268,36.51552 51.32176,36.46176 C51.37552,36.408 51.4024,36.34528 51.4024,36.2736 C51.4024,36.2288 51.38896,36.17952 51.36208,36.12576 L51.36208,36.12576 L49.29232,32.53728 C49.9016,32.36704 50.37648,32.0624 50.71696,31.62336 C51.05744,31.18432 51.22768,30.62432 51.22768,29.94336 C51.22768,29.02944 50.93872,28.3328 50.3608,27.85344 C49.78288,27.37408 48.9832,27.1344 47.96176,27.1344 L47.96176,27.1344 L44.6824,27.1344 C44.5928,27.1344 44.52112,27.16352 44.46736,27.22176 C44.4136,27.28 44.38672,27.3584 44.38672,27.45696 L44.38672,27.45696 L44.38672,36.23328 C44.38672,36.32288 44.4136,36.3968 44.46736,36.45504 C44.52112,36.51328 44.5928,36.5424 44.6824,36.5424 L44.6824,36.5424 L45.32752,36.5424 Z M47.908,31.6368 L45.65008,31.6368 L45.65008,28.22304 L47.908,28.22304 C49.26096,28.22304 49.93744,28.792 49.93744,29.92992 C49.93744,31.06784 49.26096,31.6368 47.908,31.6368 L47.908,31.6368 Z M53.17648,36.5424 C53.3288,36.5424 53.4408,36.46624 53.51248,36.31392 L53.51248,36.31392 L54.25168,34.37856 L58.70032,34.37856 L59.45296,36.31392 C59.47088,36.36768 59.50896,36.4192 59.5672,36.46848 C59.62544,36.51776 59.69936,36.5424 59.78896,36.5424 L59.78896,36.5424 L60.42064,36.5424 C60.49232,36.5424 60.55728,36.51552 60.61552,36.46176 C60.67376,36.408 60.70288,36.34528 60.70288,36.2736 L60.70288,36.2736 L60.676,36.12576 L57.34288,27.43008 C57.2712,27.23296 57.12784,27.1344 56.9128,27.1344 L56.9128,27.1344 L56.05264,27.1344 C55.8376,27.1344 55.69424,27.23296 55.62256,27.43008 L55.62256,27.43008 L52.28944,36.12576 L52.26256,36.2736 C52.26256,36.34528 52.28944,36.408 52.3432,36.46176 C52.39696,36.51552 52.45968,36.5424 52.53136,36.5424 L52.53136,36.5424 L53.17648,36.5424 Z M58.324,33.26304 L54.64144,33.26304 L56.48272,28.43808 L58.324,33.26304 Z M65.55472,36.6768 C66.33424,36.6768 67.01072,36.52672 67.58416,36.22656 C68.1576,35.9264 68.5944,35.5008 68.89456,34.94976 C69.19472,34.39872 69.3448,33.76032 69.3448,33.03456 L69.3448,33.03456 L69.3448,31.75776 C69.3448,31.6592 69.31568,31.5808 69.25744,31.52256 C69.1992,31.46432 69.1208,31.4352 69.02224,31.4352 L69.02224,31.4352 L66.01168,31.4352 C65.92208,31.4352 65.84816,31.46656 65.78992,31.52928 C65.73168,31.592 65.70256,31.66816 65.70256,31.75776 L65.70256,31.75776 L65.70256,32.16096 C65.70256,32.25056 65.73168,32.32672 65.78992,32.38944 C65.84816,32.45216 65.92208,32.48352 66.01168,32.48352 L66.01168,32.48352 L68.068,32.48352 L68.068,33.06144 C68.068,33.89472 67.83952,34.51968 67.38256,34.93632 C66.9256,35.35296 66.31632,35.56128 65.55472,35.56128 C64.80208,35.56128 64.21072,35.3552 63.78064,34.94304 C63.35056,34.53088 63.12208,33.89024 63.0952,33.02112 C63.08624,32.75232 63.08176,32.3536 63.08176,31.82496 L63.0820343,31.6030629 C63.0831314,31.1762743 63.08752,30.85152 63.0952,30.6288 C63.12208,29.76864 63.35056,29.13248 63.78064,28.72032 C64.21072,28.30816 64.80208,28.10208 65.55472,28.10208 C66.2088,28.10208 66.72848,28.24544 67.11376,28.53216 C67.49904,28.81888 67.76336,29.1728 67.90672,29.59392 C67.94256,29.69248 67.98064,29.75968 68.02096,29.79552 C68.06128,29.83136 68.12176,29.84928 68.2024,29.84928 L68.2024,29.84928 L68.95504,29.84928 C69.02672,29.84928 69.09168,29.82464 69.14992,29.77536 C69.20816,29.72608 69.23728,29.6656 69.23728,29.59392 L69.23728,29.59392 L69.23728,29.56704 C69.21936,29.22656 69.07152,28.85696 68.79376,28.45824 C68.516,28.05952 68.10384,27.7168 67.55728,27.43008 C67.01072,27.14336 66.3432,27 65.55472,27 C64.38992,27 63.48272,27.32032 62.83312,27.96096 C62.18352,28.6016 61.8408,29.46848 61.80496,30.5616 C61.796,30.82144 61.79152,31.24256 61.79152,31.82496 L61.79236,32.22648 C61.79404,32.59944 61.79824,32.88672 61.80496,33.08832 C61.84976,34.1904 62.19472,35.064 62.83984,35.70912 C63.48496,36.35424 64.38992,36.6768 65.55472,36.6768 Z" id="DRAG"></path>
            </g>
        </g>
    </g>
</svg>