<?xml version="1.0" encoding="UTF-8"?>
<svg width="30px" height="31px" viewBox="0 0 30 31" version="1.1" xmlns="http://www.w3.org/2000/svg" xmlns:xlink="http://www.w3.org/1999/xlink">
    <title>facebook</title>
    <g id="Page-1" stroke="none" stroke-width="1" fill="none" fill-rule="evenodd">
        <g id="Home---RL1" transform="translate(-459.000000, -7116.000000)" fill="#FFFFFF" fill-rule="nonzero">
            <g id="facebook" transform="translate(459.000000, 7116.160000)">
                <path d="M14.8293973,0 C6.65250133,0 0,6.65250133 0,14.8293973 C0,23.005696 6.65250133,29.6587947 14.8293973,29.6587947 C23.005696,29.6587947 29.6587947,23.005696 29.6587947,14.8293973 C29.6587947,6.65250133 23.0068907,0 14.8293973,0 Z M18.5173333,15.3514667 L16.104704,15.3514667 C16.104704,19.2060587 16.104704,23.9506773 16.104704,23.9506773 L12.529664,23.9506773 C12.529664,23.9506773 12.529664,19.2520533 12.529664,15.3514667 L10.8302507,15.3514667 L10.8302507,12.3122347 L12.529664,12.3122347 L12.529664,10.3464107 C12.529664,8.938496 13.1986773,6.73851733 16.1375573,6.73851733 L18.7867307,6.748672 L18.7867307,9.69890133 C18.7867307,9.69890133 17.1769173,9.69890133 16.8639147,9.69890133 C16.550912,9.69890133 16.1058987,9.85540267 16.1058987,10.5268053 L16.1058987,12.312832 L18.8297387,12.312832 L18.5173333,15.3514667 Z" id="Shape"></path>
            </g>
        </g>
    </g>
</svg>