<?xml version="1.0" encoding="UTF-8"?>
<svg width="265px" height="39px" viewBox="0 0 265 39" version="1.1" xmlns="http://www.w3.org/2000/svg" xmlns:xlink="http://www.w3.org/1999/xlink">
    <title>Logo-footer</title>
    <g id="Page-1" stroke="none" stroke-width="1" fill="none" fill-rule="evenodd">
        <g id="Home---RL1" transform="translate(-375.000000, -7016.000000)" fill="#FFFFFF">
            <g id="Logo-footer" transform="translate(375.000000, 7016.200000)">
                <path d="M27.8460008,0 C33.3434436,-1.00986385e-15 37.8000015,4.4565579 37.8000015,9.95400067 L37.8000015,27.8460008 C37.8000015,33.3434436 33.3434436,37.8000015 27.8460008,37.8000015 L9.95400067,37.8000015 C4.4565579,37.8000015 6.73242569e-16,33.3434436 0,27.8460008 L0,0 L27.8460008,0 Z M25.5653945,5.96842129 L5.96842129,5.96842129 L5.96842129,25.9523403 C5.99812981,26.2741592 6.03347661,26.4984798 6.07446171,26.6253021 C6.84914714,29.0224515 8.46456679,30.6761195 10.780402,31.3882018 C13.244994,32.1460244 15.623061,31.3596335 17.643371,29.2848505 C18.4865597,28.4189272 18.4681296,27.0334181 17.6022063,26.1902294 C16.736283,25.3470407 15.3507739,25.3654708 14.5075852,26.2313941 C13.5616801,27.2028034 12.8384868,27.4419525 12.0667732,27.2046629 L12.0667732,27.2046629 L12.0016324,27.1839461 C11.2272043,26.9293059 10.713386,26.4561579 10.3718137,25.6397481 L10.3718137,25.6397481 L10.3452636,25.5748222 L10.3452636,10.3452016 L25.3717589,10.3452016 L25.4965867,10.3699614 C26.9201083,10.6660169 27.382021,11.2416288 27.382021,12.4827719 L27.382021,12.4827719 L27.3816408,12.5435449 C27.3661342,13.7685074 26.8736383,14.3395864 25.4112974,14.638071 L25.4112974,14.638071 L25.3634031,14.6474386 L17.1113229,14.6474686 L17.053557,14.6481635 C15.1567989,14.6939179 14.2068453,16.9885012 15.5425999,18.3617649 L15.5425999,18.3617649 L28.0017191,31.1707469 L28.0465681,31.2155636 C28.8928909,32.0375366 30.2451352,32.0415279 31.0963173,31.2135948 L31.0963173,31.2135948 L31.141134,31.1687458 C31.963107,30.322423 31.9670983,28.9701787 31.1391652,28.1189966 L31.1391652,28.1189966 L22.2928493,19.0242809 L25.5653945,19.0243109 L25.6411695,19.0229986 C25.7421347,19.0195006 25.8427671,19.0090142 25.9423427,18.9916024 C29.6212539,18.3483076 31.7588646,16.0249231 31.7588646,12.4827719 C31.7588646,8.93526417 29.6135911,6.61811415 25.9281185,5.99869082 C25.8082608,5.97854614 25.6869332,5.96842129 25.5653945,5.96842129 L25.5653945,5.96842129 Z" id="Combined-Shape"></path>
                <path d="M49.30296,29.4 C49.59696,29.4 49.8792,29.34414 50.14968,29.23242 C50.42016,29.1207 50.65242,28.96782 50.84646,28.77378 C51.0405,28.57974 51.19632,28.35336 51.31392,28.09464 C51.43152,27.83592 51.49032,27.55368 51.49032,27.24792 L51.49032,20.45652 L53.51892,20.45652 L57.94656,28.30632 C58.09944,28.56504 58.2876,28.77966 58.51104,28.95018 C58.73448,29.1207 58.9785,29.24418 59.2431,29.32062 C59.5077,29.39706 59.78112,29.41764 60.06336,29.38236 C60.3456,29.34708 60.62196,29.25888 60.89244,29.11776 C61.15116,28.97664 61.37166,28.79436 61.55394,28.57092 C61.73622,28.34748 61.86558,28.10052 61.94202,27.83004 C62.01846,27.55956 62.04492,27.2832 62.0214,27.00096 C61.99788,26.71872 61.90968,26.44236 61.7568,26.17188 L58.15824,19.80384 C58.73448,19.53336 59.26662,19.18938 59.75466,18.7719 C60.2427,18.35442 60.65724,17.88108 60.99828,17.35188 C61.33932,16.82268 61.60686,16.24644 61.8009,15.62316 C61.99494,14.99988 62.09196,14.3472 62.09196,13.66512 C62.09196,12.71256 61.91262,11.82174 61.55394,10.99266 C61.19526,10.16358 60.70134,9.44034 60.07218,8.82294 C59.44302,8.20554 58.70802,7.7175 57.86718,7.35882 C57.02634,7.00014 56.12964,6.8208 55.17708,6.8208 L49.30296,6.8208 C48.9972,6.8208 48.71202,6.87666 48.44742,6.98838 C48.18282,7.1001 47.95056,7.25298 47.75064,7.44702 C47.55072,7.64106 47.3949,7.86744 47.28318,8.12616 C47.17146,8.38488 47.1156,8.66712 47.1156,8.97288 L47.1156,27.24792 C47.1156,27.55368 47.17146,27.83592 47.28318,28.09464 C47.3949,28.35336 47.55072,28.57974 47.75064,28.77378 C47.95056,28.96782 48.18282,29.1207 48.44742,29.23242 C48.71202,29.34414 48.9972,29.4 49.30296,29.4 Z M55.19472,16.0818 L51.49032,16.0818 L51.49032,11.1426 L55.19472,11.1426 C55.524,11.1426 55.84152,11.20434 56.14728,11.32782 C56.45304,11.4513 56.72058,11.62182 56.9499,11.83938 C57.17922,12.05694 57.36444,12.31272 57.50556,12.60672 C57.64668,12.90072 57.71724,13.21236 57.71724,13.54164 C57.71724,13.87092 57.64668,14.18844 57.50556,14.4942 C57.36444,14.79996 57.17922,15.07044 56.9499,15.30564 C56.72058,15.54084 56.45304,15.729 56.14728,15.87012 C55.84152,16.01124 55.524,16.0818 55.19472,16.0818 Z M72.83472,29.59404 C73.50504,29.59404 74.09892,29.54994 74.61636,29.46174 C75.1338,29.37354 75.59538,29.25594 76.0011,29.10894 C76.40682,28.96194 76.76256,28.79436 77.06832,28.6062 C77.37408,28.41804 77.64456,28.224 77.87976,28.02408 C78.13848,27.82416 78.33252,27.60072 78.46188,27.35376 C78.59124,27.1068 78.67356,26.8569 78.70884,26.60406 C78.74412,26.35122 78.73236,26.10132 78.67356,25.85436 C78.61476,25.6074 78.52068,25.37808 78.39132,25.1664 C78.26196,24.95472 78.10908,24.76656 77.93268,24.60192 C77.75628,24.43728 77.55636,24.3138 77.33292,24.23148 C77.00364,24.10212 76.65378,24.06096 76.28334,24.108 C75.9129,24.15504 75.53364,24.33144 75.14556,24.6372 C75.0162,24.74304 74.88096,24.843 74.73984,24.93708 C74.59872,25.03116 74.43996,25.11054 74.26356,25.17522 C74.08716,25.2399 73.8843,25.29282 73.65498,25.33398 C73.42566,25.37514 73.15224,25.39572 72.83472,25.39572 C72.05856,25.39572 71.35002,25.19286 70.7091,24.78714 C70.06818,24.38142 69.5772,23.83752 69.23616,23.15544 L79.14984,23.15544 C79.78488,23.15544 80.30232,22.96434 80.70216,22.58214 C81.102,22.19994 81.30192,21.6972 81.30192,21.07392 C81.2784,19.92144 81.04026,18.84246 80.5875,17.83698 C80.13474,16.8315 79.52616,15.95244 78.76176,15.1998 C77.99736,14.44716 77.1036,13.85622 76.08048,13.42698 C75.05736,12.99774 73.97544,12.78312 72.83472,12.78312 C71.67048,12.78312 70.5768,13.00362 69.55368,13.44462 C68.53056,13.88562 67.63386,14.48538 66.86358,15.2439 C66.0933,16.00242 65.48472,16.89324 65.03784,17.91636 C64.59096,18.93948 64.36752,20.03316 64.36752,21.1974 C64.36752,22.36164 64.59096,23.45238 65.03784,24.46962 C65.48472,25.48686 66.0933,26.37474 66.86358,27.13326 C67.63386,27.89178 68.53056,28.49154 69.55368,28.93254 C70.5768,29.37354 71.67048,29.59404 72.83472,29.59404 Z M76.80372,19.5216 L69.11268,19.5216 C69.2538,19.15704 69.44784,18.816 69.6948,18.49848 C69.94176,18.18096 70.22694,17.90754 70.55034,17.67822 C70.87374,17.4489 71.23536,17.26956 71.6352,17.1402 C72.03504,17.01084 72.4584,16.94616 72.90528,16.94616 C73.82256,16.94616 74.62518,17.18136 75.31314,17.65176 C76.0011,18.12216 76.49796,18.74544 76.80372,19.5216 Z M90.47472,29.4 C90.52176,29.4 90.5688,29.39412 90.61584,29.38236 C90.83928,29.34708 91.0392,29.28828 91.2156,29.20596 C91.4508,29.10012 91.64484,28.97076 91.79772,28.81788 C92.0094,28.62972 92.1858,28.38864 92.32692,28.09464 L92.32692,28.09464 L97.95408,15.88776 C98.08344,15.60552 98.15106,15.32034 98.15694,15.03222 C98.16282,14.7441 98.11578,14.46774 98.01582,14.20314 C97.91586,13.93854 97.76592,13.7004 97.566,13.48872 C97.36608,13.27704 97.125,13.10652 96.84276,12.97716 C96.56052,12.85956 96.27534,12.79782 95.98722,12.79194 C95.6991,12.78606 95.42568,12.8331 95.16696,12.93306 C94.90824,13.03302 94.67304,13.18296 94.46136,13.38288 C94.24968,13.5828 94.08504,13.818 93.96744,14.08848 L93.96744,14.08848 L90.31596,22.32636 L86.61156,14.08848 C86.4822,13.80624 86.31462,13.5681 86.10882,13.37406 C85.90302,13.18002 85.67076,13.03008 85.41204,12.92424 C85.15332,12.8184 84.8799,12.76842 84.59178,12.7743 C84.30366,12.78018 84.01848,12.84192 83.73624,12.95952 C83.46576,13.08888 83.23056,13.2594 83.03064,13.47108 C82.83072,13.68276 82.68078,13.9209 82.58082,14.1855 C82.48086,14.4501 82.43382,14.72646 82.4397,15.01458 C82.44558,15.3027 82.5132,15.58788 82.64256,15.87012 L82.64256,15.87012 L88.305,28.09464 C88.43436,28.36512 88.59312,28.58856 88.78128,28.76496 C88.9812,28.96488 89.19288,29.11188 89.41632,29.20596 C89.5104,29.253 89.61036,29.28828 89.7162,29.3118 C89.82204,29.33532 89.922,29.35884 90.01608,29.38236 C90.06312,29.38236 90.10428,29.3853 90.13956,29.39118 C90.17484,29.39706 90.216,29.4 90.26304,29.4 L90.26304,29.4 L90.47472,29.4 Z M107.77956,29.59404 C108.44988,29.59404 109.04376,29.54994 109.5612,29.46174 C110.07864,29.37354 110.54022,29.25594 110.94594,29.10894 C111.35166,28.96194 111.7074,28.79436 112.01316,28.6062 C112.31892,28.41804 112.5894,28.224 112.8246,28.02408 C113.08332,27.82416 113.27736,27.60072 113.40672,27.35376 C113.53608,27.1068 113.6184,26.8569 113.65368,26.60406 C113.68896,26.35122 113.6772,26.10132 113.6184,25.85436 C113.5596,25.6074 113.46552,25.37808 113.33616,25.1664 C113.2068,24.95472 113.05392,24.76656 112.87752,24.60192 C112.70112,24.43728 112.5012,24.3138 112.27776,24.23148 C111.94848,24.10212 111.59862,24.06096 111.22818,24.108 C110.85774,24.15504 110.47848,24.33144 110.0904,24.6372 C109.96104,24.74304 109.8258,24.843 109.68468,24.93708 C109.54356,25.03116 109.3848,25.11054 109.2084,25.17522 C109.032,25.2399 108.82914,25.29282 108.59982,25.33398 C108.3705,25.37514 108.09708,25.39572 107.77956,25.39572 C107.0034,25.39572 106.29486,25.19286 105.65394,24.78714 C105.01302,24.38142 104.52204,23.83752 104.181,23.15544 L114.09468,23.15544 C114.72972,23.15544 115.24716,22.96434 115.647,22.58214 C116.04684,22.19994 116.24676,21.6972 116.24676,21.07392 C116.22324,19.92144 115.9851,18.84246 115.53234,17.83698 C115.07958,16.8315 114.471,15.95244 113.7066,15.1998 C112.9422,14.44716 112.04844,13.85622 111.02532,13.42698 C110.0022,12.99774 108.92028,12.78312 107.77956,12.78312 C106.61532,12.78312 105.52164,13.00362 104.49852,13.44462 C103.4754,13.88562 102.5787,14.48538 101.80842,15.2439 C101.03814,16.00242 100.42956,16.89324 99.98268,17.91636 C99.5358,18.93948 99.31236,20.03316 99.31236,21.1974 C99.31236,22.36164 99.5358,23.45238 99.98268,24.46962 C100.42956,25.48686 101.03814,26.37474 101.80842,27.13326 C102.5787,27.89178 103.4754,28.49154 104.49852,28.93254 C105.52164,29.37354 106.61532,29.59404 107.77956,29.59404 Z M111.74856,19.5216 L104.05752,19.5216 C104.19864,19.15704 104.39268,18.816 104.63964,18.49848 C104.8866,18.18096 105.17178,17.90754 105.49518,17.67822 C105.81858,17.4489 106.1802,17.26956 106.58004,17.1402 C106.97988,17.01084 107.40324,16.94616 107.85012,16.94616 C108.7674,16.94616 109.57002,17.18136 110.25798,17.65176 C110.94594,18.12216 111.4428,18.74544 111.74856,19.5216 Z M126.17808,29.59404 C126.95424,29.59404 127.69806,29.47056 128.40954,29.2236 C129.12102,28.97664 129.79428,28.64148 130.42932,28.21812 C130.59396,28.57092 130.84092,28.8561 131.1702,29.07366 C131.49948,29.29122 131.88756,29.4 132.33444,29.4 C132.65196,29.4 132.94596,29.3412 133.21644,29.2236 C133.48692,29.106 133.72212,28.94724 133.92204,28.74732 C134.12196,28.5474 134.28072,28.30926 134.39832,28.0329 C134.51592,27.75654 134.57472,27.46548 134.57472,27.15972 L134.57472,27.15972 L134.57472,21.07392 C134.5512,19.9332 134.316,18.85716 133.86912,17.8458 C133.42224,16.83444 132.81954,15.95538 132.06102,15.20862 C131.3025,14.46186 130.41756,13.87092 129.4062,13.4358 C128.39484,13.00068 127.3188,12.78312 126.17808,12.78312 C125.0256,12.78312 123.94074,13.00362 122.9235,13.44462 C121.90626,13.88562 121.01544,14.48832 120.25104,15.25272 C119.48664,16.01712 118.881,16.90794 118.43412,17.92518 C117.98724,18.94242 117.7638,20.03316 117.7638,21.1974 C117.7638,22.34988 117.98724,23.43768 118.43412,24.4608 C118.881,25.48392 119.48664,26.37474 120.25104,27.13326 C121.01544,27.89178 121.90626,28.49154 122.9235,28.93254 C123.94074,29.37354 125.0256,29.59404 126.17808,29.59404 Z M126.17808,25.20168 C125.62536,25.20168 125.10498,25.09878 124.61694,24.89298 C124.1289,24.68718 123.7026,24.402 123.33804,24.03744 C122.97348,23.67288 122.68536,23.24658 122.47368,22.75854 C122.262,22.2705 122.15616,21.75012 122.15616,21.1974 C122.15616,20.63292 122.262,20.1096 122.47368,19.62744 C122.68536,19.14528 122.97348,18.72192 123.33804,18.35736 C123.7026,17.9928 124.1289,17.70762 124.61694,17.50182 C125.10498,17.29602 125.62536,17.19312 126.17808,17.19312 C126.74256,17.19312 127.26882,17.29602 127.75686,17.50182 C128.2449,17.70762 128.66826,17.9928 129.02694,18.35736 C129.38562,18.72192 129.6708,19.14528 129.88248,19.62744 C130.09416,20.1096 130.2,20.63292 130.2,21.1974 C130.2,21.75012 130.09416,22.2705 129.88248,22.75854 C129.6708,23.24658 129.38562,23.67288 129.02694,24.03744 C128.66826,24.402 128.2449,24.68718 127.75686,24.89298 C127.26882,25.09878 126.74256,25.20168 126.17808,25.20168 Z M141.80712,29.4 C142.11288,29.4 142.39806,29.34414 142.66266,29.23242 C142.92726,29.1207 143.15952,28.96782 143.35944,28.77378 C143.55936,28.57974 143.71518,28.35336 143.8269,28.09464 C143.93862,27.83592 143.99448,27.55368 143.99448,27.24792 L143.99448,17.19312 L144.96468,17.19312 C145.27044,17.19312 145.55856,17.13432 145.82904,17.01672 C146.09952,16.89912 146.33178,16.74036 146.52582,16.54044 C146.71986,16.34052 146.87274,16.10826 146.98446,15.84366 C147.09618,15.57906 147.15204,15.29388 147.15204,14.98812 C147.15204,14.68236 147.09618,14.39718 146.98446,14.13258 C146.87274,13.86798 146.71986,13.63866 146.52582,13.44462 C146.33178,13.25058 146.09952,13.0977 145.82904,12.98598 C145.55856,12.87426 145.27044,12.8184 144.96468,12.8184 L143.99448,12.8184 L143.99448,8.97288 C143.99448,8.66712 143.93862,8.38488 143.8269,8.12616 C143.71518,7.86744 143.55936,7.64106 143.35944,7.44702 C143.15952,7.25298 142.92726,7.1001 142.66266,6.98838 C142.39806,6.87666 142.11288,6.8208 141.80712,6.8208 C141.50136,6.8208 141.21618,6.87666 140.95158,6.98838 C140.68698,7.1001 140.45472,7.25298 140.2548,7.44702 C140.05488,7.64106 139.89906,7.86744 139.78734,8.12616 C139.67562,8.38488 139.61976,8.66712 139.61976,8.97288 L139.61976,12.8184 L138.79068,12.8184 C138.48492,12.8184 138.19974,12.87426 137.93514,12.98598 C137.67054,13.0977 137.43828,13.25058 137.23836,13.44462 C137.03844,13.63866 136.88262,13.86798 136.7709,14.13258 C136.65918,14.39718 136.60332,14.68236 136.60332,14.98812 C136.60332,15.29388 136.65918,15.57906 136.7709,15.84366 C136.88262,16.10826 137.03844,16.34052 137.23836,16.54044 C137.43828,16.74036 137.67054,16.89912 137.93514,17.01672 C138.19974,17.13432 138.48492,17.19312 138.79068,17.19312 L139.61976,17.19312 L139.61976,27.24792 C139.61976,27.55368 139.67562,27.83592 139.78734,28.09464 C139.89906,28.35336 140.05488,28.57974 140.2548,28.77378 C140.45472,28.96782 140.68698,29.1207 140.95158,29.23242 C141.21618,29.34414 141.50136,29.4 141.80712,29.4 Z M151.33272,11.30136 C151.65024,11.30136 151.95306,11.23962 152.24118,11.11614 C152.5293,10.99266 152.78214,10.82508 152.9997,10.6134 C153.21726,10.40172 153.38778,10.15182 153.51126,9.8637 C153.63474,9.57558 153.69648,9.27276 153.69648,8.95524 C153.69648,8.62596 153.63474,8.3202 153.51126,8.03796 C153.38778,7.75572 153.21726,7.50876 152.9997,7.29708 C152.78214,7.0854 152.5293,6.91782 152.24118,6.79434 C151.95306,6.67086 151.65024,6.60912 151.33272,6.60912 C151.0152,6.60912 150.71238,6.67086 150.42426,6.79434 C150.13614,6.91782 149.88624,7.0854 149.67456,7.29708 C149.46288,7.50876 149.2953,7.75572 149.17182,8.03796 C149.04834,8.3202 148.9866,8.62596 148.9866,8.95524 C148.9866,9.27276 149.04834,9.57558 149.17182,9.8637 C149.2953,10.15182 149.46288,10.40172 149.67456,10.6134 C149.88624,10.82508 150.13614,10.99266 150.42426,11.11614 C150.71238,11.23962 151.0152,11.30136 151.33272,11.30136 Z M151.368,29.4 C151.662,29.4 151.9413,29.34414 152.2059,29.23242 C152.4705,29.1207 152.70276,28.96488 152.90268,28.76496 C153.1026,28.56504 153.25842,28.33572 153.37014,28.077 C153.48186,27.81828 153.53772,27.53604 153.53772,27.23028 L153.53772,14.9352 C153.53772,14.6412 153.48186,14.3619 153.37014,14.0973 C153.25842,13.8327 153.10848,13.60044 152.92032,13.40052 C152.73216,13.2006 152.50578,13.04478 152.24118,12.93306 C151.97658,12.82134 151.69728,12.76548 151.40328,12.76548 C151.09752,12.76548 150.80646,12.82134 150.5301,12.93306 C150.25374,13.04478 150.0156,13.2006 149.81568,13.40052 C149.61576,13.60044 149.457,13.8327 149.3394,14.0973 C149.2218,14.3619 149.163,14.6412 149.163,14.9352 L149.163,27.23028 C149.163,27.53604 149.2218,27.81828 149.3394,28.077 C149.457,28.33572 149.61576,28.56504 149.81568,28.76496 C150.0156,28.96488 150.24786,29.1207 150.51246,29.23242 C150.77706,29.34414 151.06224,29.4 151.368,29.4 Z M164.47452,29.59404 C165.63876,29.59404 166.7295,29.37354 167.74674,28.93254 C168.76398,28.49154 169.65186,27.89178 170.41038,27.13326 C171.1689,26.37474 171.76866,25.48392 172.20966,24.4608 C172.65066,23.43768 172.87116,22.34988 172.87116,21.1974 C172.87116,20.03316 172.65066,18.94242 172.20966,17.92518 C171.76866,16.90794 171.1689,16.01712 170.41038,15.25272 C169.65186,14.48832 168.76398,13.88562 167.74674,13.44462 C166.7295,13.00362 165.63876,12.78312 164.47452,12.78312 C163.32204,12.78312 162.23718,13.00362 161.21994,13.44462 C160.2027,13.88562 159.31188,14.48832 158.54748,15.25272 C157.78308,16.01712 157.17744,16.90794 156.73056,17.92518 C156.28368,18.94242 156.06024,20.03316 156.06024,21.1974 C156.06024,22.34988 156.28368,23.43768 156.73056,24.4608 C157.17744,25.48392 157.78308,26.37474 158.54748,27.13326 C159.31188,27.89178 160.2027,28.49154 161.21994,28.93254 C162.23718,29.37354 163.32204,29.59404 164.47452,29.59404 Z M164.47452,25.20168 C163.9218,25.20168 163.40142,25.09878 162.91338,24.89298 C162.42534,24.68718 161.99904,24.402 161.63448,24.03744 C161.26992,23.67288 160.9818,23.24658 160.77012,22.75854 C160.55844,22.2705 160.4526,21.75012 160.4526,21.1974 C160.4526,20.63292 160.55844,20.1096 160.77012,19.62744 C160.9818,19.14528 161.26992,18.72192 161.63448,18.35736 C161.99904,17.9928 162.42534,17.70762 162.91338,17.50182 C163.40142,17.29602 163.9218,17.19312 164.47452,17.19312 C165.039,17.19312 165.56526,17.29602 166.0533,17.50182 C166.54134,17.70762 166.9647,17.9928 167.32338,18.35736 C167.68206,18.72192 167.96724,19.14528 168.17892,19.62744 C168.3906,20.1096 168.49644,20.63292 168.49644,21.1974 C168.49644,21.75012 168.3906,22.2705 168.17892,22.75854 C167.96724,23.24658 167.68206,23.67288 167.32338,24.03744 C166.9647,24.402 166.54134,24.68718 166.0533,24.89298 C165.56526,25.09878 165.039,25.20168 164.47452,25.20168 Z M188.42964,29.43528 C188.72364,29.43528 189.00588,29.37942 189.27636,29.2677 C189.54684,29.15598 189.7791,29.00604 189.97314,28.81788 C190.16718,28.62972 190.323,28.40628 190.4406,28.14756 C190.5582,27.88884 190.617,27.6066 190.617,27.30084 L190.617,27.30084 L190.617,20.9328 C190.60524,19.80384 190.42884,18.7425 190.0878,17.74878 C189.74676,16.75506 189.26754,15.8907 188.65014,15.1557 C188.03274,14.4207 187.2948,13.84152 186.43632,13.41816 C185.57784,12.9948 184.63116,12.78312 183.59628,12.78312 C182.89068,12.78312 182.2086,12.91836 181.55004,13.18884 C180.89148,13.45932 180.2682,13.83564 179.6802,14.3178 C179.55084,13.87092 179.30094,13.50048 178.9305,13.20648 C178.56006,12.91248 178.12788,12.76548 177.63396,12.76548 C177.3282,12.76548 177.03714,12.82134 176.76078,12.93306 C176.48442,13.04478 176.24628,13.2006 176.04636,13.40052 C175.84644,13.60044 175.68768,13.8327 175.57008,14.0973 C175.45248,14.3619 175.39368,14.6412 175.39368,14.9352 L175.39368,14.9352 L175.39368,27.23028 C175.39368,27.53604 175.45248,27.81828 175.57008,28.077 C175.68768,28.33572 175.84644,28.56504 176.04636,28.76496 C176.24628,28.96488 176.47854,29.1207 176.74314,29.23242 C177.00774,29.34414 177.29292,29.4 177.59868,29.4 C177.89268,29.4 178.17198,29.34414 178.43658,29.23242 C178.70118,29.1207 178.93344,28.96488 179.13336,28.76496 C179.33328,28.56504 179.4891,28.33572 179.60082,28.077 C179.71254,27.81828 179.7684,27.53604 179.7684,27.23028 L179.7684,27.23028 L179.7684,20.68584 C179.78016,20.1684 179.8713,19.69212 180.04182,19.257 C180.21234,18.82188 180.4446,18.44556 180.7386,18.12804 C181.0326,17.81052 181.37952,17.56356 181.77936,17.38716 C182.1792,17.21076 182.6202,17.12256 183.10236,17.12256 C183.58452,17.12256 184.01964,17.22252 184.40772,17.42244 C184.7958,17.62236 185.12508,17.89284 185.39556,18.23388 C185.66604,18.57492 185.87478,18.9777 186.02178,19.44222 C186.16878,19.90674 186.24816,20.40948 186.25992,20.95044 L186.25992,20.95044 L186.25992,27.30084 C186.25992,27.6066 186.31872,27.88884 186.43632,28.14756 C186.55392,28.40628 186.70974,28.62972 186.90378,28.81788 C187.09782,29.00604 187.32714,29.15598 187.59174,29.2677 C187.85634,29.37942 188.13564,29.43528 188.42964,29.43528 Z M210.087746,29.3996472 C210.325769,29.3892984 210.55062,29.339436 210.7623,29.25006 C211.0269,29.13834 211.25622,28.98546 211.45026,28.79142 C211.6443,28.59738 211.79718,28.36806 211.9089,28.10346 C212.02062,27.83886 212.07648,27.55368 212.07648,27.24792 C212.07648,26.94216 212.02062,26.65698 211.9089,26.39238 C211.79718,26.12778 211.6443,25.89552 211.45026,25.6956 C211.25622,25.49568 211.0269,25.33986 210.7623,25.22814 C210.4977,25.11642 210.21252,25.06056 209.90676,25.06056 L209.90676,25.06056 L203.46816,25.04292 L203.46816,8.97288 C203.46816,8.66712 203.40936,8.38488 203.29176,8.12616 C203.17416,7.86744 203.01834,7.64106 202.8243,7.44702 C202.63026,7.25298 202.398,7.1001 202.12752,6.98838 C201.85704,6.87666 201.5748,6.8208 201.2808,6.8208 C200.97504,6.8208 200.68986,6.87666 200.42526,6.98838 C200.16066,7.1001 199.9284,7.25298 199.72848,7.44702 C199.52856,7.64106 199.37274,7.86744 199.26102,8.12616 C199.1493,8.38488 199.09344,8.66712 199.09344,8.97288 L199.09344,8.97288 L199.09344,27.24792 C199.09344,27.77712 199.24632,28.22988 199.55208,28.6062 C199.85784,28.98252 200.25768,29.22948 200.7516,29.34708 L200.7516,29.34708 L200.928,29.38236 L200.99856,29.38236 C201.0456,29.39412 201.11028,29.4 201.1926,29.4 L201.1926,29.4 L210.087746,29.3996472 Z M221.53152,29.59404 C222.30768,29.59404 223.0515,29.47056 223.76298,29.2236 C224.47446,28.97664 225.14772,28.64148 225.78276,28.21812 C225.9474,28.57092 226.19436,28.8561 226.52364,29.07366 C226.85292,29.29122 227.241,29.4 227.68788,29.4 C228.0054,29.4 228.2994,29.3412 228.56988,29.2236 C228.84036,29.106 229.07556,28.94724 229.27548,28.74732 C229.4754,28.5474 229.63416,28.30926 229.75176,28.0329 C229.86936,27.75654 229.92816,27.46548 229.92816,27.15972 L229.92816,27.15972 L229.92816,21.07392 C229.90464,19.9332 229.66944,18.85716 229.22256,17.8458 C228.77568,16.83444 228.17298,15.95538 227.41446,15.20862 C226.65594,14.46186 225.771,13.87092 224.75964,13.4358 C223.74828,13.00068 222.67224,12.78312 221.53152,12.78312 C220.37904,12.78312 219.29418,13.00362 218.27694,13.44462 C217.2597,13.88562 216.36888,14.48832 215.60448,15.25272 C214.84008,16.01712 214.23444,16.90794 213.78756,17.92518 C213.34068,18.94242 213.11724,20.03316 213.11724,21.1974 C213.11724,22.34988 213.34068,23.43768 213.78756,24.4608 C214.23444,25.48392 214.84008,26.37474 215.60448,27.13326 C216.36888,27.89178 217.2597,28.49154 218.27694,28.93254 C219.29418,29.37354 220.37904,29.59404 221.53152,29.59404 Z M221.53152,25.20168 C220.9788,25.20168 220.45842,25.09878 219.97038,24.89298 C219.48234,24.68718 219.05604,24.402 218.69148,24.03744 C218.32692,23.67288 218.0388,23.24658 217.82712,22.75854 C217.61544,22.2705 217.5096,21.75012 217.5096,21.1974 C217.5096,20.63292 217.61544,20.1096 217.82712,19.62744 C218.0388,19.14528 218.32692,18.72192 218.69148,18.35736 C219.05604,17.9928 219.48234,17.70762 219.97038,17.50182 C220.45842,17.29602 220.9788,17.19312 221.53152,17.19312 C222.096,17.19312 222.62226,17.29602 223.1103,17.50182 C223.59834,17.70762 224.0217,17.9928 224.38038,18.35736 C224.73906,18.72192 225.02424,19.14528 225.23592,19.62744 C225.4476,20.1096 225.55344,20.63292 225.55344,21.1974 C225.55344,21.75012 225.4476,22.2705 225.23592,22.75854 C225.02424,23.24658 224.73906,23.67288 224.38038,24.03744 C224.0217,24.402 223.59834,24.68718 223.1103,24.89298 C222.62226,25.09878 222.096,25.20168 221.53152,25.20168 Z M241.88808,29.59404 C243.05232,29.59404 244.14306,29.37354 245.1603,28.93254 C246.17754,28.49154 247.06542,27.89178 247.82394,27.13326 C248.58246,26.37474 249.18222,25.48392 249.62322,24.4608 C250.06422,23.43768 250.28472,22.34988 250.28472,21.1974 C250.28472,20.03316 250.06422,18.94242 249.62322,17.92518 C249.18222,16.90794 248.58246,16.01712 247.82394,15.25272 C247.06542,14.48832 246.17754,13.88562 245.1603,13.44462 C244.14306,13.00362 243.05232,12.78312 241.88808,12.78312 C240.7356,12.78312 239.6478,13.00656 238.62468,13.45344 C238.3542,13.57104 238.09548,13.7004 237.84852,13.84152 L237.84852,13.84152 L237.84852,8.97288 C237.84852,8.66712 237.78972,8.38488 237.67212,8.12616 C237.55452,7.86744 237.3987,7.64106 237.20466,7.44702 C237.01062,7.25298 236.77836,7.1001 236.50788,6.98838 C236.2374,6.87666 235.95516,6.8208 235.66116,6.8208 C235.3554,6.8208 235.07022,6.87666 234.80562,6.98838 C234.54102,7.1001 234.30876,7.25298 234.10884,7.44702 C233.90892,7.64106 233.7531,7.86744 233.64138,8.12616 C233.52966,8.38488 233.4738,8.66712 233.4738,8.97288 L233.4738,8.97288 L233.4738,27.24792 C233.4738,27.55368 233.52966,27.83592 233.64138,28.09464 C233.7531,28.35336 233.90892,28.57974 234.10884,28.77378 C234.30876,28.96782 234.54102,29.1207 234.80562,29.23242 C235.07022,29.34414 235.3554,29.4 235.66116,29.4 C235.95516,29.4 236.2374,29.34414 236.50788,29.23242 C236.77836,29.1207 237.00768,28.97076 237.19584,28.7826 C237.3252,28.65324 237.43692,28.518 237.531,28.37688 C237.87204,28.58856 238.2366,28.77672 238.62468,28.94136 C239.6478,29.37648 240.7356,29.59404 241.88808,29.59404 Z M241.88808,25.20168 C241.33536,25.20168 240.81498,25.09878 240.32694,24.89298 C239.8389,24.68718 239.4126,24.402 239.04804,24.03744 C238.68348,23.67288 238.39536,23.24658 238.18368,22.75854 C237.972,22.2705 237.86616,21.75012 237.86616,21.1974 C237.86616,20.63292 237.972,20.1096 238.18368,19.62744 C238.39536,19.14528 238.68348,18.72192 239.04804,18.35736 C239.4126,17.9928 239.8389,17.70762 240.32694,17.50182 C240.81498,17.29602 241.33536,17.19312 241.88808,17.19312 C242.45256,17.19312 242.97882,17.29602 243.46686,17.50182 C243.9549,17.70762 244.37826,17.9928 244.73694,18.35736 C245.09562,18.72192 245.3808,19.14528 245.59248,19.62744 C245.80416,20.1096 245.91,20.63292 245.91,21.1974 C245.91,21.75012 245.80416,22.2705 245.59248,22.75854 C245.3808,23.24658 245.09562,23.67288 244.73694,24.03744 C244.37826,24.402 243.9549,24.68718 243.46686,24.89298 C242.97882,25.09878 242.45256,25.20168 241.88808,25.20168 Z M258.1698,29.59404 C259.0518,29.59404 259.86618,29.46174 260.61294,29.19714 C261.3597,28.93254 262.00062,28.56798 262.5357,28.10346 C263.07078,27.63894 263.48826,27.0921 263.78814,26.46294 C264.08802,25.83378 264.23796,25.16052 264.23796,24.44316 C264.23796,23.67876 264.09978,23.02608 263.82342,22.48512 C263.54706,21.94416 263.17368,21.48258 262.70328,21.10038 C262.23288,20.71818 261.69486,20.39478 261.08922,20.13018 C260.48358,19.86558 259.8456,19.62744 259.17528,19.41576 C258.76368,19.2864 258.39324,19.16292 258.06396,19.04532 C257.73468,18.92772 257.45244,18.80424 257.21724,18.67488 C256.98204,18.54552 256.79976,18.4044 256.6704,18.25152 C256.54104,18.09864 256.47636,17.92224 256.47636,17.72232 C256.47636,17.36952 256.63806,17.09022 256.96146,16.88442 C257.28486,16.67862 257.76996,16.57572 258.41676,16.57572 C258.68724,16.57572 258.92832,16.61688 259.14,16.6992 C259.35168,16.78152 259.55454,16.88148 259.74858,16.99908 C259.94262,17.11668 260.13666,17.24016 260.3307,17.36952 C260.52474,17.49888 260.74524,17.61648 260.9922,17.72232 C261.36852,17.88696 261.75366,17.91342 262.14762,17.8017 C262.54158,17.68998 262.86792,17.48712 263.12664,17.19312 C263.36184,16.92264 263.51178,16.60512 263.57646,16.24056 C263.64114,15.876 263.57352,15.48204 263.3736,15.05868 C263.17368,14.6706 262.87968,14.32956 262.4916,14.03556 C262.10352,13.74156 261.66546,13.49754 261.17742,13.3035 C260.68938,13.10946 260.17488,12.9654 259.63392,12.87132 C259.09296,12.77724 258.5814,12.7302 258.09924,12.7302 C257.2878,12.7302 256.52046,12.85662 255.79722,13.10946 C255.07398,13.3623 254.436,13.71216 253.88328,14.15904 C253.33056,14.60592 252.8925,15.14394 252.5691,15.7731 C252.2457,16.40226 252.084,17.09316 252.084,17.8458 C252.084,18.57492 252.24864,19.20702 252.57792,19.7421 C252.9072,20.27718 253.34526,20.74758 253.8921,21.1533 C254.43894,21.55902 255.06516,21.91182 255.77076,22.2117 C256.47636,22.51158 257.1996,22.79676 257.94048,23.06724 C258.0816,23.11428 258.26976,23.17308 258.50496,23.24364 C258.74016,23.3142 258.96654,23.40828 259.1841,23.52588 C259.40166,23.64348 259.59276,23.79048 259.7574,23.96688 C259.92204,24.14328 260.00436,24.36672 260.00436,24.6372 C260.00436,24.82536 259.95144,24.99 259.8456,25.13112 C259.73976,25.27224 259.59864,25.38984 259.42224,25.48392 C259.24584,25.578 259.04592,25.64856 258.82248,25.6956 C258.59904,25.74264 258.36972,25.76616 258.13452,25.76616 C257.82876,25.76616 257.56122,25.7397 257.3319,25.68678 C257.10258,25.63386 256.8909,25.55154 256.69686,25.43982 C256.50282,25.3281 256.3176,25.18992 256.1412,25.02528 C255.9648,24.86064 255.7884,24.6666 255.612,24.44316 C255.29448,24.06684 254.95344,23.80224 254.58888,23.64936 C254.22432,23.49648 253.86858,23.42886 253.52166,23.4465 C253.17474,23.46414 252.85722,23.55822 252.5691,23.72874 C252.28098,23.89926 252.0546,24.12564 251.88996,24.40788 C251.72532,24.69012 251.64006,25.01646 251.63418,25.3869 C251.6283,25.75734 251.74296,26.15424 251.97816,26.5776 C252.27216,27.11856 252.66318,27.58014 253.15122,27.96234 C253.63926,28.34454 254.16552,28.65618 254.73,28.89726 C255.29448,29.13834 255.8766,29.31474 256.47636,29.42646 C257.07612,29.53818 257.6406,29.59404 258.1698,29.59404 Z" id="ReveationLabs" fill-rule="nonzero"></path>
            </g>
        </g>
    </g>
</svg>