<?xml version="1.0" encoding="UTF-8"?>
<svg width="30px" height="31px" viewBox="0 0 30 31" version="1.1" xmlns="http://www.w3.org/2000/svg" xmlns:xlink="http://www.w3.org/1999/xlink">
    <title>twitter</title>
    <g id="Page-1" stroke="none" stroke-width="1" fill="none" fill-rule="evenodd">
        <g id="Home---RL1" transform="translate(-375.000000, -7116.000000)" fill="#FFFFFF" fill-rule="nonzero">
            <g id="twitter" transform="translate(375.000000, 7116.160000)">
                <path d="M14.9146897,0 C6.67805175,0 0,6.67805175 0,14.9146897 C0,23.1513276 6.67805175,29.8293793 14.9146897,29.8293793 C23.1513276,29.8293793 29.8293793,23.1513276 29.8293793,14.9146897 C29.8293793,6.67621191 23.1513276,0 14.9146897,0 Z M22.3347472,11.5663113 L22.3459088,12.0417248 C22.3459088,16.8964381 18.6526839,22.4894773 11.8981563,22.4894773 C9.82502943,22.4894773 7.89540972,21.8817183 6.26973087,20.8395127 C6.5568679,20.873059 6.84952444,20.8917027 7.1459833,20.8917027 C8.86678166,20.8917027 10.4495923,20.3044271 11.7061388,19.3200537 C10.0991036,19.2902483 8.74369665,18.2275592 8.27576509,16.7696734 C8.50132895,16.8125415 8.72879398,16.8330864 8.96742067,16.8330864 C9.30300671,16.8330864 9.62736975,16.7902182 9.93499028,16.7063217 C8.25522026,16.3669947 6.98935195,14.8848843 6.98935195,13.1063151 L6.98935195,13.059706 C7.48524901,13.33562 8.0501399,13.499672 8.65231814,13.5202168 C7.6679447,12.8621076 7.01915729,11.7379066 7.01915729,10.4645563 C7.01915729,9.79154442 7.20001314,9.16140068 7.51505435,8.61889446 C9.32533005,10.8411707 12.0323417,12.3027975 15.0842612,12.4556879 C15.0208482,12.1871945 14.989203,11.9056997 14.989203,11.618624 C14.989203,9.59210623 16.6335255,7.94772238 18.6619444,7.94772238 C19.7171515,7.94772238 20.6717196,8.39326927 21.3428304,9.10730951 C22.1780545,8.94135633 22.9648296,8.63563696 23.6751288,8.21615441 C23.4010546,9.07376318 22.8194212,9.79338426 22.0606116,10.248253 C22.8007775,10.1606155 23.5110768,9.96111595 24.169186,9.67029925 C23.67703,10.404823 23.0524671,11.0517706 22.3347472,11.5663113 Z" id="Shape"></path>
            </g>
        </g>
    </g>
</svg>