<?xml version="1.0" encoding="UTF-8"?>
<svg width="30px" height="31px" viewBox="0 0 30 31" version="1.1" xmlns="http://www.w3.org/2000/svg" xmlns:xlink="http://www.w3.org/1999/xlink">
    <title>youtube</title>
    <g id="Page-1" stroke="none" stroke-width="1" fill="none" fill-rule="evenodd">
        <g id="Home---RL1" transform="translate(-501.000000, -7116.000000)" fill="#FFFFFF" fill-rule="nonzero">
            <g id="youtube" transform="translate(501.000000, 7116.160000)">
                <path d="M12.1810286,18.1598476 C14.4161524,17.0008381 16.6317714,15.8524952 18.8678095,14.6928762 C16.6250667,13.5225905 14.4100571,12.3675429 12.1810286,11.2042667 C12.1810286,13.530819 12.1810286,15.8336 12.1810286,18.1598476 Z" id="Path"></path>
                <path d="M14.8952381,0 C6.66910476,0 0,6.6688 0,14.8952381 C0,23.1216762 6.66910476,29.7904762 14.8952381,29.7904762 C23.1213714,29.7904762 29.7904762,23.1216762 29.7904762,14.8952381 C29.7904762,6.6688 23.1213714,0 14.8952381,0 Z M25.0441143,19.8671238 C24.7862857,20.9856 23.8713905,21.8105905 22.7702857,21.9334095 C20.1624381,22.2250667 17.5232,22.2265905 14.8946286,22.2250667 C12.2660571,22.2265905 9.62620952,22.2250667 7.01775238,21.9334095 C5.91664762,21.8105905 5.0023619,20.9856 4.74514286,19.8671238 C4.37851429,18.2738286 4.37851429,16.5351619 4.37851429,14.8952381 C4.37851429,13.2553143 4.38278095,11.5160381 4.74940952,9.92335238 C5.00662857,8.80487619 5.92091429,7.97958095 7.02201905,7.85645714 C9.63047619,7.56510476 12.2703238,7.56358095 14.8988952,7.56510476 C17.5268571,7.56358095 20.1667048,7.56510476 22.7742476,7.85645714 C23.8759619,7.97958095 24.7908571,8.80457143 25.0480762,9.92335238 C25.4147048,11.5163429 25.4116576,13.2553143 25.4116576,14.8952381 C25.4116576,16.5351619 25.4107429,18.2741333 25.0441143,19.8671238 Z" id="Shape"></path>
            </g>
        </g>
    </g>
</svg>